{
    "asset" : {
        "generator" : "Khronos glTF Blender I/O v1.8.19",
        "version" : "2.0"
    },
    "scene" : 0,
    "scenes" : [
        {
            "name" : "Scene",
            "nodes" : [
                0
            ]
        }
    ],
    "nodes" : [
        {
            "mesh" : 0,
            "name" : "\u529e\u516c\u697c04"
        }
    ],
    "materials" : [
        {
            "doubleSided" : true,
            "name" : "Mat3d66-1003769-24-6329",
            "pbrMetallicRoughness" : {
                "baseColorFactor" : [
                    0.2509799897670746,
                    0.2980389893054962,
                    0.34902000427246094,
                    1
                ],
                "metallicFactor" : 0,
                "roughnessFactor" : 0.5
            }
        },
        {
            "doubleSided" : true,
            "name" : "Mat3d66-1003769-25-2442",
            "pbrMetallicRoughness" : {
                "baseColorTexture" : {
                    "index" : 0
                },
                "metallicFactor" : 0,
                "roughnessFactor" : 0.5
            }
        },
        {
            "doubleSided" : true,
            "name" : "Mat3d66-1003769-26-4059",
            "pbrMetallicRoughness" : {
                "baseColorTexture" : {
                    "index" : 1
                },
                "metallicFactor" : 0,
                "roughnessFactor" : 0.5
            }
        },
        {
            "alphaMode" : "BLEND",
            "doubleSided" : true,
            "name" : "Mat3d66-1003769-27-4965",
            "pbrMetallicRoughness" : {
                "baseColorFactor" : [
                    0.564706027507782,
                    0.7372549772262573,
                    0.8352940082550049,
                    0.874015748500824
                ],
                "metallicFactor" : 0,
                "roughnessFactor" : 0.5
            }
        },
        {
            "doubleSided" : true,
            "name" : "Mat3d66-1003769-28-3127",
            "pbrMetallicRoughness" : {
                "baseColorTexture" : {
                    "index" : 2
                },
                "metallicFactor" : 0,
                "roughnessFactor" : 0.5
            }
        },
        {
            "doubleSided" : true,
            "name" : "Mat3d66-1003769-29-3347",
            "pbrMetallicRoughness" : {
                "baseColorTexture" : {
                    "index" : 3
                },
                "metallicFactor" : 0,
                "roughnessFactor" : 0.5
            }
        }
    ],
    "meshes" : [
        {
            "name" : "Obj3d66-1003769-31-514",
            "primitives" : [
                {
                    "attributes" : {
                        "POSITION" : 0,
                        "NORMAL" : 1,
                        "TEXCOORD_0" : 2
                    },
                    "indices" : 3,
                    "material" : 0
                },
                {
                    "attributes" : {
                        "POSITION" : 4,
                        "NORMAL" : 5,
                        "TEXCOORD_0" : 6
                    },
                    "indices" : 7,
                    "material" : 1
                },
                {
                    "attributes" : {
                        "POSITION" : 8,
                        "NORMAL" : 9,
                        "TEXCOORD_0" : 10
                    },
                    "indices" : 11,
                    "material" : 2
                },
                {
                    "attributes" : {
                        "POSITION" : 12,
                        "NORMAL" : 13,
                        "TEXCOORD_0" : 14
                    },
                    "indices" : 15,
                    "material" : 3
                },
                {
                    "attributes" : {
                        "POSITION" : 16,
                        "NORMAL" : 17,
                        "TEXCOORD_0" : 18
                    },
                    "indices" : 19,
                    "material" : 4
                },
                {
                    "attributes" : {
                        "POSITION" : 20,
                        "NORMAL" : 21,
                        "TEXCOORD_0" : 22
                    },
                    "indices" : 23,
                    "material" : 5
                }
            ]
        }
    ],
    "textures" : [
        {
            "sampler" : 0,
            "source" : 0
        },
        {
            "sampler" : 0,
            "source" : 1
        },
        {
            "sampler" : 0,
            "source" : 2
        },
        {
            "sampler" : 0,
            "source" : 3
        }
    ],
    "images" : [
        {
            "bufferView" : 8,
            "mimeType" : "image/jpeg",
            "name" : "Image_0"
        },
        {
            "bufferView" : 13,
            "mimeType" : "image/jpeg",
            "name" : "Image_1"
        },
        {
            "bufferView" : 22,
            "mimeType" : "image/jpeg",
            "name" : "Image_2"
        },
        {
            "bufferView" : 27,
            "mimeType" : "image/jpeg",
            "name" : "Image_3"
        }
    ],
    "accessors" : [
        {
            "bufferView" : 0,
            "componentType" : 5126,
            "count" : 10769,
            "max" : [
                31.937196731567383,
                22.50000762939453,
                9.756641387939453
            ],
            "min" : [
                -31.936025619506836,
                2.86102294921875e-06,
                -0.7603998184204102
            ],
            "type" : "VEC3"
        },
        {
            "bufferView" : 1,
            "componentType" : 5126,
            "count" : 10769,
            "type" : "VEC3"
        },
        {
            "bufferView" : 2,
            "componentType" : 5126,
            "count" : 10769,
            "type" : "VEC2"
        },
        {
            "bufferView" : 3,
            "componentType" : 5123,
            "count" : 13008,
            "type" : "SCALAR"
        },
        {
            "bufferView" : 4,
            "componentType" : 5126,
            "count" : 6205,
            "max" : [
                32.150577545166016,
                23.40001678466797,
                10.327581405639648
            ],
            "min" : [
                -32.1494255065918,
                4.76837158203125e-06,
                -7.591311454772949
            ],
            "type" : "VEC3"
        },
        {
            "bufferView" : 5,
            "componentType" : 5126,
            "count" : 6205,
            "type" : "VEC3"
        },
        {
            "bufferView" : 6,
            "componentType" : 5126,
            "count" : 6205,
            "type" : "VEC2"
        },
        {
            "bufferView" : 7,
            "componentType" : 5123,
            "count" : 8628,
            "type" : "SCALAR"
        },
        {
            "bufferView" : 9,
            "componentType" : 5126,
            "count" : 500,
            "max" : [
                31.85057258605957,
                22.656776428222656,
                14.727581977844238
            ],
            "min" : [
                -31.849430084228516,
                9.5367431640625e-06,
                -7.502701759338379
            ],
            "type" : "VEC3"
        },
        {
            "bufferView" : 10,
            "componentType" : 5126,
            "count" : 500,
            "type" : "VEC3"
        },
        {
            "bufferView" : 11,
            "componentType" : 5126,
            "count" : 500,
            "type" : "VEC2"
        },
        {
            "bufferView" : 12,
            "componentType" : 5123,
            "count" : 576,
            "type" : "SCALAR"
        },
        {
            "bufferView" : 14,
            "componentType" : 5126,
            "count" : 206,
            "max" : [
                31.897199630737305,
                22.500009536743164,
                9.716639518737793
            ],
            "min" : [
                -31.896024703979492,
                0,
                -0.7604007720947266
            ],
            "type" : "VEC3"
        },
        {
            "bufferView" : 15,
            "componentType" : 5126,
            "count" : 206,
            "type" : "VEC3"
        },
        {
            "bufferView" : 16,
            "componentType" : 5126,
            "count" : 206,
            "type" : "VEC2"
        },
        {
            "bufferView" : 17,
            "componentType" : 5123,
            "count" : 252,
            "type" : "SCALAR"
        },
        {
            "bufferView" : 18,
            "componentType" : 5126,
            "count" : 1448,
            "max" : [
                32.2505989074707,
                24.000015258789062,
                15.211624145507812
            ],
            "min" : [
                -32.24940490722656,
                1.9073486328125e-06,
                -9.702672958374023
            ],
            "type" : "VEC3"
        },
        {
            "bufferView" : 19,
            "componentType" : 5126,
            "count" : 1448,
            "type" : "VEC3"
        },
        {
            "bufferView" : 20,
            "componentType" : 5126,
            "count" : 1448,
            "type" : "VEC2"
        },
        {
            "bufferView" : 21,
            "componentType" : 5123,
            "count" : 1896,
            "type" : "SCALAR"
        },
        {
            "bufferView" : 23,
            "componentType" : 5126,
            "count" : 28,
            "max" : [
                5.298571586608887,
                0.10000991821289062,
                14.727619171142578
            ],
            "min" : [
                -5.301426887512207,
                9.5367431640625e-06,
                10.027620315551758
            ],
            "type" : "VEC3"
        },
        {
            "bufferView" : 24,
            "componentType" : 5126,
            "count" : 28,
            "type" : "VEC3"
        },
        {
            "bufferView" : 25,
            "componentType" : 5126,
            "count" : 28,
            "type" : "VEC2"
        },
        {
            "bufferView" : 26,
            "componentType" : 5123,
            "count" : 36,
            "type" : "SCALAR"
        }
    ],
    "bufferViews" : [
        {
            "buffer" : 0,
            "byteLength" : 129228,
            "byteOffset" : 0
        },
        {
            "buffer" : 0,
            "byteLength" : 129228,
            "byteOffset" : 129228
        },
        {
            "buffer" : 0,
            "byteLength" : 86152,
            "byteOffset" : 258456
        },
        {
            "buffer" : 0,
            "byteLength" : 26016,
            "byteOffset" : 344608
        },
        {
            "buffer" : 0,
            "byteLength" : 74460,
            "byteOffset" : 370624
        },
        {
            "buffer" : 0,
            "byteLength" : 74460,
            "byteOffset" : 445084
        },
        {
            "buffer" : 0,
            "byteLength" : 49640,
            "byteOffset" : 519544
        },
        {
            "buffer" : 0,
            "byteLength" : 17256,
            "byteOffset" : 569184
        },
        {
            "buffer" : 0,
            "byteLength" : 126772,
            "byteOffset" : 586440
        },
        {
            "buffer" : 0,
            "byteLength" : 6000,
            "byteOffset" : 713212
        },
        {
            "buffer" : 0,
            "byteLength" : 6000,
            "byteOffset" : 719212
        },
        {
            "buffer" : 0,
            "byteLength" : 4000,
            "byteOffset" : 725212
        },
        {
            "buffer" : 0,
            "byteLength" : 1152,
            "byteOffset" : 729212
        },
        {
            "buffer" : 0,
            "byteLength" : 37172,
            "byteOffset" : 730364
        },
        {
            "buffer" : 0,
            "byteLength" : 2472,
            "byteOffset" : 767536
        },
        {
            "buffer" : 0,
            "byteLength" : 2472,
            "byteOffset" : 770008
        },
        {
            "buffer" : 0,
            "byteLength" : 1648,
            "byteOffset" : 772480
        },
        {
            "buffer" : 0,
            "byteLength" : 504,
            "byteOffset" : 774128
        },
        {
            "buffer" : 0,
            "byteLength" : 17376,
            "byteOffset" : 774632
        },
        {
            "buffer" : 0,
            "byteLength" : 17376,
            "byteOffset" : 792008
        },
        {
            "buffer" : 0,
            "byteLength" : 11584,
            "byteOffset" : 809384
        },
        {
            "buffer" : 0,
            "byteLength" : 3792,
            "byteOffset" : 820968
        },
        {
            "buffer" : 0,
            "byteLength" : 138495,
            "byteOffset" : 824760
        },
        {
            "buffer" : 0,
            "byteLength" : 336,
            "byteOffset" : 963256
        },
        {
            "buffer" : 0,
            "byteLength" : 336,
            "byteOffset" : 963592
        },
        {
            "buffer" : 0,
            "byteLength" : 224,
            "byteOffset" : 963928
        },
        {
            "buffer" : 0,
            "byteLength" : 72,
            "byteOffset" : 964152
        },
        {
            "buffer" : 0,
            "byteLength" : 132586,
            "byteOffset" : 964224
        }
    ],
    "samplers" : [
        {
            "magFilter" : 9729,
            "minFilter" : 9987
        }
    ],
    "buffers" : [
        {
            "byteLength" : 1096812,
            "uri" : "data:application/octet-stream;base64,"
        }
    ]
}
